<?xml version="1.0" encoding="utf-8"?>
<!-- Generator: Adobe Illustrator 23.1.1, SVG Export Plug-In . SVG Version: 6.00 Build 0)  -->
<svg version="1.1" id="Layer_1" xmlns="http://www.w3.org/2000/svg" xmlns:xlink="http://www.w3.org/1999/xlink" x="0px" y="0px"
	 viewBox="0 0 256 256" style="enable-background:new 0 0 256 256;" xml:space="preserve">
<path d="M170.388,202.971l34.026,28.796l-12.598,12.598c-14.639,14.637-21.192,8.085-29.276,0c-8.085-8.084-8.244-14.847,0-29.276
	L170.388,202.971z M11.288,199.816c11.879,11.879,21.509,21.509,43.017,0l52.224-52.225c-5.893-5.692-11.638-11.45-17.153-17.239
	c-13.421-14.089-23.842-25.941-31.63-35.987l-46.458,62.435C-6.635,181.891-0.59,187.936,11.288,199.816z M128.221,153.821
	l83.483,70.654l35.605-35.604c14.638-14.638,8.085-21.191,0-29.276l0,0c-8.085-8.085-13.509-9.966-29.276,0l-20.264,13.124
	l-38.568-45.518c-5.103-5.645-10.317-11.196-15.632-16.65l53.614-53.614c21.509-21.508,11.88-31.138,0-43.017
	c-11.878-11.878-17.155-17.155-43.016,0L88.761,61.161l-0.005,0.006c-4.288-3.173-8.088-5.715-11.467-7.713l24.065-24.065
	c2.204-2.204,2.204-5.776,0-7.981c-2.203-2.203-5.776-2.203-7.98,0L66.43,48.353c-6.469-2.013-10.484-0.864-13.241,1.893
	c-2.757,2.757-3.905,6.772-1.893,13.241L24.468,90.316c-2.204,2.203-2.204,5.777,0,7.981c2.203,2.203,5.776,2.203,7.98,0
	L56.4,74.344c1.747,2.95,3.903,6.217,6.531,9.848c7.739,10.447,19.115,23.568,33.886,39.074
	C106.683,133.619,117.248,143.899,128.221,153.821z"/>
</svg>
