<?xml version="1.0" encoding="utf-8"?>
<svg id="Layer_1" enable-background="new 0 0 512 512" height="512" viewBox="0 0 512 512" width="512"
	 xmlns="http://www.w3.org/2000/svg">
	<g>
		<path d="m497 0h-482c-8.284 0-15 6.716-15 15v241c0 8.284 6.716 15 15 15h193.867v34.267h-17.133c-3.978 0-7.793 1.581-10.606 4.394l-48.2 48.2c-2.813 2.813-4.394 6.628-4.394 10.606v1.066h-113.534c-8.284 0-15 6.716-15 15s6.716 15 15 15h113.533v17.133c0 8.284 6.716 15 15 15s15-6.716 15-15v-41.986l39.414-39.414h88.911c-6.361 19.852-24.988 34.267-46.924 34.267-5.015 0-9.699 2.506-12.481 6.68l-32.133 48.2c-1.643 2.464-2.519 5.359-2.519 8.32v16.067c0 11.935 3.294 23.345 9.409 33.2h-39.068l-28.966-14.483c-2.083-1.042-4.38-1.583-6.708-1.583h-112.468c-8.284 0-15 6.716-15 15s6.716 15 15 15h108.926l28.966 14.483c2.083 1.042 4.38 1.583 6.708 1.583h144.6c8.284 0 15-6.716 15-15v-176.733c0-8.284-6.716-15-15-15h-1.066v-34.267h193.866c8.284 0 15-6.716 15-15v-241c0-8.284-6.716-15-15-15zm-223.866 305.267h-34.267v-34.267h34.267zm16.066 176.733h-33.2c-8.755 0-17.294-3.536-23.478-9.753-6.27-6.241-9.722-14.568-9.722-23.447v-11.525l25.45-38.175c15.374-1.611 29.458-7.636 40.951-16.778v99.678zm192.8-241h-452v-211h452z"/>
		<path d="m111.4 110.333h289.2c8.284 0 15-6.716 15-15s-6.716-15-15-15h-289.2c-8.284 0-15 6.716-15 15s6.716 15 15 15z"/>
		<path d="m352.4 160.667h-192.8c-8.284 0-15 6.716-15 15s6.716 15 15 15h192.8c8.284 0 15-6.716 15-15s-6.715-15-15-15z"/>
	</g>
</svg>
