<?xml version="1.0" encoding="utf-8"?>
<svg version="1.1" id="Layer_1" xmlns="http://www.w3.org/2000/svg" xmlns:xlink="http://www.w3.org/1999/xlink" x="0px" y="0px"
	 viewBox="0 0 48 48" style="enable-background:new 0 0 48 48;" xml:space="preserve">
	<style type="text/css">
		.st0{fill:none;stroke:#000000;stroke-width:2;stroke-miterlimit:10;}
		.st1{fill:#FFFFFF;stroke:#000000;stroke-width:2;stroke-miterlimit:10;}
	</style>
	<g>
		<path d="M41.582,14.94H39.6V5.566c0-1.48-1.204-2.685-2.685-2.685H5.361c-1.48,0-2.685,1.204-2.685,2.685V37.12
			c0,1.48,1.204,2.685,2.685,2.685h9.783v1.573c0,2.049,1.667,3.716,3.716,3.716h23.123c1.827,0,3.314-1.487,3.314-3.314V18.656
			C45.298,16.607,43.631,14.94,41.582,14.94z M15.145,18.254v19.55H5.361c-0.378,0-0.685-0.307-0.685-0.685V10.656H37.6v4.284H18.459
			C16.632,14.94,15.145,16.427,15.145,18.254z M43.298,41.779c0,0.725-0.59,1.314-1.314,1.314H18.86c-0.946,0-1.716-0.77-1.716-1.716
			V18.254c0-0.725,0.59-1.314,1.314-1.314h23.123c0.946,0,1.716,0.77,1.716,1.716V41.779z"/>
		<rect x="29.011" y="22.146" width="2.42" height="10.901"/>
		<rect x="29.011" y="35.467" width="2.42" height="2.42"/>
	</g>
</svg>
