<?xml version="1.0" encoding="utf-8"?>
<svg version="1.1" id="Layer_1" xmlns="http://www.w3.org/2000/svg" xmlns:xlink="http://www.w3.org/1999/xlink" x="0px" y="0px"
	 viewBox="0 0 48 48" style="enable-background:new 0 0 48 48;" xml:space="preserve">
	<style type="text/css">
		.st0{fill:none;stroke:#000000;stroke-width:2;stroke-miterlimit:10;}
		.st1{fill:#FFFFFF;stroke:#000000;stroke-width:2;stroke-miterlimit:10;}
	</style>
	<g>
		<path d="M46.034,16.642H1.977c-1.087,0-1.971,0.884-1.971,1.971v10.774c0,1.087,0.884,1.971,1.971,1.971h44.057
			c1.087,0,1.971-0.884,1.971-1.971V18.613C48.005,17.526,47.121,16.642,46.034,16.642z M1.977,18.645l8.362-0.006v10.742
			l-8.331,0.006L1.977,18.645z M46.003,29.355l-33.661,0.024V18.638l33.661-0.024V29.355z"/>
		<rect x="25.084" y="22.707" width="11.244" height="2.586"/>
		<rect x="17.148" y="22.707" width="5.622" height="2.586"/>
		<rect x="38.641" y="22.707" width="2.586" height="2.586"/>
	</g>
</svg>
