<svg xmlns="http://www.w3.org/2000/svg" viewBox="0 0 513 450">
	<path d="M494.5,30H17.5C13.36,30,90.86,45,95,45H494.5a2.5,2.5,0,0,1,2.5,2.5v100a2.5,2.5,0,0,1-2.5,2.5H95V45L17.5,30A17.52,17.52,0,0,0,0,47.5v100A17.52,17.52,0,0,0,17.5,165h477A17.52,17.52,0,0,0,512,147.5V47.5A17.52,17.52,0,0,0,494.5,30ZM15,147.5V47.5A2.5,2.5,0,0,1,17.5,45H80V150H17.5A2.5,2.5,0,0,1,15,147.5Z"
		  transform="translate(1 -30)"/>
	<path d="M174.5,88.5a7.5,7.5,0,0,0,0-15H134a7.5,7.5,0,0,0,0,15Z" transform="translate(1 -30)"/>
	<path d="M343,111.5a7.5,7.5,0,0,0-7.5-7.5h-201a7.5,7.5,0,0,0,0,15h201A7.5,7.5,0,0,0,343,111.5Z"
		  transform="translate(1 -30)"/>
	<path d="M246.25,88.5a7.5,7.5,0,0,0,0-15h-50.5a7.5,7.5,0,0,0,0,15Z" transform="translate(1 -30)"/>
	<path d="M493.5,187.5H16.5c-4.14,0,73.36,15,77.5,15H493.5A2.5,2.5,0,0,1,496,205V305a2.5,2.5,0,0,1-2.5,2.5H94v-105l-77.5-15A17.52,17.52,0,0,0-1,205V305a17.52,17.52,0,0,0,17.5,17.5h477A17.52,17.52,0,0,0,511,305V205A17.52,17.52,0,0,0,493.5,187.5ZM14,305V205a2.5,2.5,0,0,1,2.5-2.5H79v105H16.5A2.5,2.5,0,0,1,14,305Z"
		  transform="translate(1 -30)"/>
	<path d="M173.5,246a7.5,7.5,0,0,0,0-15H133a7.5,7.5,0,0,0,0,15Z" transform="translate(1 -30)"/>
	<path d="M342,269a7.5,7.5,0,0,0-7.5-7.5h-201a7.5,7.5,0,0,0,0,15h201A7.5,7.5,0,0,0,342,269Z"
		  transform="translate(1 -30)"/>
	<path d="M245.25,246a7.5,7.5,0,0,0,0-15h-50.5a7.5,7.5,0,0,0,0,15Z" transform="translate(1 -30)"/>
	<path d="M268,246h40.5a7.5,7.5,0,0,0,0-15H268a7.5,7.5,0,0,0,0,15Z" transform="translate(1 -30)"/>
	<path d="M360.75,276.5h40.5a7.5,7.5,0,0,0,0-15h-40.5a7.5,7.5,0,0,0,0,15Z" transform="translate(1 -30)"/>
	<path d="M494.5,345H17.5c-4.14,0,73.36,15,77.5,15H494.5a2.5,2.5,0,0,1,2.5,2.5v100a2.5,2.5,0,0,1-2.5,2.5H95V360L17.5,345A17.52,17.52,0,0,0,0,362.5v100A17.52,17.52,0,0,0,17.5,480h477A17.52,17.52,0,0,0,512,462.5v-100A17.52,17.52,0,0,0,494.5,345ZM15,462.5v-100a2.5,2.5,0,0,1,2.5-2.5H80V465H17.5A2.5,2.5,0,0,1,15,462.5Z"
		  transform="translate(1 -30)"/>
	<path d="M344.75,420h40.5a7.5,7.5,0,0,0,0-15h-40.5a7.5,7.5,0,0,0,0,15Z" transform="translate(1 -30)"/>
	<path d="M133,420h40.5a7.5,7.5,0,0,0,0-15H133a7.5,7.5,0,0,0,0,15Z" transform="translate(1 -30)"/>
	<path d="M246.25,420a7.5,7.5,0,0,0,0-15h-50.5a7.5,7.5,0,0,0,0,15Z" transform="translate(1 -30)"/>
	<path d="M318.5,420a7.5,7.5,0,0,0,0-15H268a7.5,7.5,0,0,0,0,15Z" transform="translate(1 -30)"/>
</svg>
