<svg id="Capa_1" enable-background="new 0 0 512 512" height="512" viewBox="0 0 512 512" width="512"
	 xmlns="http://www.w3.org/2000/svg">
	<g>
		<g>
			<g>
				<g>
					<g>
						<circle cx="330.651" cy="63.863" r="7.49"/>
						<circle cx="362.839" cy="63.863" r="7.49"/>
					</g>
				</g>
			</g>
			<g>
				<path d="m141.671 71.363h134.788c4.142 0 7.5-3.358 7.5-7.5s-3.358-7.5-7.5-7.5h-134.788c-4.142 0-7.5 3.358-7.5 7.5s3.358 7.5 7.5 7.5z"/>
				<path d="m492.075 410.772h-13.163v-49.132c0-4.142-3.358-7.5-7.5-7.5s-7.5 3.358-7.5 7.5v49.132c-32.144 0-395.987 0-415.823 0v-253.28c0-10.2 8.298-18.499 18.499-18.499h35.594v20.205h-19.527c-7.919 0-14.361 6.443-14.361 14.362v202.645c0 7.919 6.442 14.362 14.361 14.362h346.689c7.919 0 14.361-6.443 14.361-14.362v-202.645c0-7.919-6.442-14.362-14.361-14.362h-19.526v-20.205h35.594c10.2 0 18.499 8.298 18.499 18.499v169.064c0 4.142 3.358 7.5 7.5 7.5s7.5-3.358 7.5-7.5v-169.064c0-18.471-15.027-33.499-33.499-33.499h-35.594v-82.54c0-8.48-6.899-15.38-15.38-15.38h-276.876c-8.481 0-15.38 6.899-15.38 15.38v82.54h-35.595c-18.471 0-33.499 15.027-33.499 33.499v253.281h-13.163c-10.987-.001-19.925 8.938-19.925 19.925 0 30.453 24.776 55.229 55.229 55.229h401.542c30.453 0 55.229-24.776 55.229-55.229 0-10.988-8.938-19.926-19.925-19.926zm-408.781-236.574h18.887v201.369h-18.887zm345.412 0v201.369h-18.887v-201.369zm-311.144-133.124h276.877c.209 0 .38.17.38.38v45.2h-218.965c-4.142 0-7.5 3.358-7.5 7.5s3.358 7.5 7.5 7.5h218.965v273.914h-277.638v-273.915h23.61c4.142 0 7.5-3.358 7.5-7.5s-3.358-7.5-7.5-7.5h-23.61v-45.2c0-.209.171-.379.381-.379zm66.138 384.698h144.6v7.538c0 4.157-3.382 7.539-7.539 7.539h-129.522c-4.157 0-7.539-3.382-7.539-7.539zm273.071 45.154h-401.542c-22.182 0-40.229-18.047-40.229-40.229 0-2.715 2.209-4.925 4.925-4.925h148.775v7.538c0 12.428 10.111 22.539 22.539 22.539h129.522c12.428 0 22.539-10.111 22.539-22.539v-7.538h148.775c2.716 0 4.925 2.209 4.925 4.925 0 22.183-18.047 40.229-40.229 40.229z"/>
				<path d="m156.009 240.855-5.437 1.401c-12.07 3.109-19.323 15.394-16.213 27.466l3.755 14.576c2.618 10.163 11.801 16.929 21.843 16.928 4.315 0 6.724-1.131 11.952-2.346 3.801 4.429 9.595 6.882 15.6 6.306l26.3 39.865c2.734 4.145 7.334 6.536 12.143 6.536 2.98 0 4.269-.744 12.14-2.654 7.785-2.004 12.463-9.928 10.458-17.714l-10.028-38.922 10.702-2.757c28.51-7.344 58.538-.315 80.793 18.795l.094.365c1.445 5.61 4.989 10.321 9.978 13.266 3.384 1.998 7.158 3.02 10.987 3.02 1.816 0 3.644-.23 5.448-.695 5.61-1.445 10.321-4.989 13.266-9.978s3.771-10.826 2.325-16.435l-40.002-155.264c-1.445-5.61-4.989-10.321-9.978-13.266-4.988-2.944-10.825-3.77-16.436-2.325-5.61 1.445-10.321 4.989-13.266 9.978s-3.771 10.826-2.325 16.435l.094.365c-10.25 27.485-33.143 48.15-61.652 55.495l-58.888 15.172c-7.789 2.007-13.1 8.776-13.653 16.387zm5.83 45.13c-4.031 1.039-8.159-1.396-9.199-5.429l-3.755-14.576c-1.042-4.043 1.387-8.156 5.43-9.198l4.504-1.161 7.524 29.204zm72.072 48.536-7.759 1.999-23.14-35.074 20.984-5.406zm71.439-189.896c.908-1.538 2.361-2.631 4.091-3.077.558-.144 1.117-.212 1.668-.212 2.978 0 5.701 2.007 6.478 5.02l40.002 155.264c.92 3.571-1.237 7.225-4.808 8.145-3.57.92-7.225-1.236-8.145-4.808l-40.003-155.264c-.445-1.73-.191-3.529.717-5.068zm-9.363 31.628 28.245 109.628c-40.435-23.562-78.943-10.638-79.835-10.588l-13.189-51.193c.81-.39 40.72-7.607 64.779-47.847zm-122.583 62.741 43.278-11.15 13.189 51.193c-13.17 3.393-34.191 8.809-43.277 11.15-3.144.807-3.938-2.377-4.018-2.477l-11.525-44.73c-.45-1.748.606-3.536 2.353-3.986z"/>
			</g>
		</g>
	</g>
</svg>
