<?xml version="1.0" encoding="utf-8"?>
<!-- Generator: Adobe Illustrator 23.1.1, SVG Export Plug-In . SVG Version: 6.00 Build 0)  -->
<svg version="1.1" id="Layer_1" xmlns="http://www.w3.org/2000/svg" xmlns:xlink="http://www.w3.org/1999/xlink" x="0px" y="0px"
	 viewBox="0 0 256 256" style="enable-background:new 0 0 256 256;" xml:space="preserve">
<style type="text/css">
	.st0{fill:#EFA500;}
	.st1{fill:#43C0F7;}
	.st2{fill:#FFFFFF;}
</style>
<g>
	<path class="st0" d="M152.768,99.018l16.843,14.254l-6.236,6.236c-7.247,7.246-10.491,4.002-14.492,0
		c-4.002-4.002-4.081-7.349,0-14.492L152.768,99.018z M74.01,97.456c5.88,5.88,10.647,10.647,21.294,0l25.852-25.853
		c-2.917-2.818-5.761-5.668-8.491-8.534c-6.644-6.974-11.803-12.841-15.658-17.815L74.01,76.161
		C65.137,88.583,68.13,91.575,74.01,97.456z M131.894,74.687l41.326,34.975l17.625-17.625c7.246-7.246,4.002-10.49,0-14.492l0,0
		c-4.002-4.002-6.687-4.934-14.492,0l-10.031,6.497L147.23,61.51c-2.526-2.795-5.107-5.542-7.738-8.242l26.54-26.54
		c10.647-10.647,5.881-15.414,0-21.294c-5.88-5.88-8.492-8.492-21.294,0l-32.377,23.385l-0.002,0.003
		c-2.123-1.571-4.004-2.829-5.676-3.818l11.913-11.913c1.091-1.091,1.091-2.859,0-3.951c-1.091-1.091-2.859-1.091-3.95,0
		l-13.338,13.338c-3.202-0.996-5.19-0.428-6.554,0.937c-1.365,1.365-1.933,3.352-0.937,6.554L80.534,43.251
		c-1.091,1.091-1.091,2.86,0,3.951s2.859,1.091,3.95,0l11.857-11.857c0.865,1.46,1.932,3.077,3.233,4.875
		c3.831,5.171,9.462,11.667,16.774,19.342C121.232,64.687,126.462,69.776,131.894,74.687z"/>
	<path class="st1" d="M216.372,159.141l-40.138-40.138v10.638c0,9.914-8.037,17.951-17.951,17.951l0,0H22.895l45.527,54.203
		l-45.527,54.203h91.053v-0.001L158.283,256l0,0h17.951C226.792,256.016,252.122,194.891,216.372,159.141z"/>
	<g>
		<path class="st2" d="M191.751,217.717c-4.393,4.393-10.462,7.11-17.166,7.11c-13.407,0-24.276-10.869-24.276-24.276
			s10.869-24.276,24.276-24.276c6.703,0,12.771,2.717,17.164,7.109l12.75-12.749c-7.656-7.655-18.232-12.39-29.914-12.39
			c-23.365,0-42.307,18.941-42.307,42.307s18.941,42.307,42.307,42.307c11.683,0,22.259-4.735,29.915-12.391L191.751,217.717z"/>
	</g>
</g>
</svg>
