<svg id="Layer_1" data-name="Layer 1" xmlns="http://www.w3.org/2000/svg" viewBox="0 0 48 48"><defs><style>.cls-1{fill:#efa500;}.cls-2{fill:#4bc0f7;}</style></defs><title>icon-adding-editing</title><path class="cls-1" d="M45,21.51l-3.9,3.91-7.6-7.6,3.9-3.9a.84.84,0,0,1,1.19,0L45,20.32A.84.84,0,0,1,45,21.51Z"/><path class="cls-1" d="M22.38,44.16,14.09,46a.8.8,0,0,1-1-1l1.82-8.28Z"/><path class="cls-2" d="M18.43,30.37,30.74,18l.35-.35A14.22,14.22,0,1,0,16.94,30.45,14.72,14.72,0,0,0,18.43,30.37ZM14.56,24v-5.7H9a.5.5,0,0,1-.51-.5V14.61A.51.51,0,0,1,9,14.1h5.52V8.41a.51.51,0,0,1,.51-.51h3.74a.51.51,0,0,1,.51.51V14.1h5.52a.5.5,0,0,1,.5.51v3.23a.5.5,0,0,1-.5.5H19.32V24a.5.5,0,0,1-.51.5H15.07A.5.5,0,0,1,14.56,24Z"/><polyline class="cls-1" points="32.04 19.32 39.63 26.92 23.91 42.6 16.35 35.05 32.04 19.32"/></svg>