<svg id="Layer_1" data-name="Layer 1" xmlns="http://www.w3.org/2000/svg" viewBox="0 0 48 48"><defs><style>.cls-1{fill:#efa500;}.cls-2{fill:#4bc0f7;}</style></defs><title>icon-types_1</title><path class="cls-1" d="M45.61,34.91,35.24,16.47a.93.93,0,0,0-.81-.47,1,1,0,0,0-.82.47L26.78,28.61v7.54h18a.85.85,0,0,0,.8-.39A.79.79,0,0,0,45.61,34.91ZM33.43,22.6c0-.55.17-1,1-1s1,.45,1,1v5.55c0,.56-.16,1-1,1s-1-.45-1-1Zm1,10.42a1.16,1.16,0,1,1,1.16-1.16A1.17,1.17,0,0,1,34.43,33Z"/><path class="cls-2" d="M29.86,5.48a11.86,11.86,0,0,0-17.48,16H22.61a4.15,4.15,0,0,1,4,3.05l.37-.17,5-8.84a2.81,2.81,0,0,1,1.36-1.19c0-.16,0-.31,0-.47A11.78,11.78,0,0,0,29.86,5.48ZM28,10.56l-8,8a1,1,0,0,1-.73.34h0a1.09,1.09,0,0,1-.73-.33L15,15.14a1,1,0,0,1-.31-.74,1,1,0,0,1,.31-.73,1.07,1.07,0,0,1,1.47,0l2.71,2.71,7.31-7.31A1,1,0,0,1,28,10.56Z"/><path class="cls-1" d="M22.61,23.4H4.53a2.25,2.25,0,0,0-2.25,2.26V46l4.52-4.52H22.61a2.26,2.26,0,0,0,2.26-2.26V25.66A2.26,2.26,0,0,0,22.61,23.4Zm-14,11.22A1.61,1.61,0,1,1,10.26,33,1.6,1.6,0,0,1,8.65,34.62Zm4.92,0A1.61,1.61,0,1,1,15.18,33,1.6,1.6,0,0,1,13.57,34.62Zm4.92,0A1.61,1.61,0,1,1,20.1,33,1.6,1.6,0,0,1,18.49,34.62Z"/></svg>