<svg id="Layer_1" data-name="Layer 1" xmlns="http://www.w3.org/2000/svg" viewBox="0 0 48 48"><defs><style>.cls-1{fill:#4bc0f7;}.cls-2{fill:#efa500;}</style></defs><title>icon-users_2</title><path class="cls-1" d="M14.65,35.68a14.56,14.56,0,0,0,18.89,0,2.78,2.78,0,0,0,1-2.12A6.58,6.58,0,0,0,27.9,27H20.29a6.59,6.59,0,0,0-6.62,6.59A2.78,2.78,0,0,0,14.65,35.68Z"/><path class="cls-1" d="M24.1,24.52A6.54,6.54,0,1,1,30.64,18,6.54,6.54,0,0,1,24.1,24.52Z"/><path class="cls-2" d="M37.58,8.84a6.53,6.53,0,0,0-6.19,4.44,8.6,8.6,0,0,1,1.4,4.7,8.1,8.1,0,0,1-.17,1.65,6.54,6.54,0,1,0,5-10.79Z"/><path class="cls-2" d="M15.41,18a8.68,8.68,0,0,1,1.28-4.51,6.54,6.54,0,1,0-1.14,6A8.71,8.71,0,0,1,15.41,18Z"/><path class="cls-2" d="M41.38,24.36H33.77a6.71,6.71,0,0,0-3.44,1,8.62,8.62,0,0,1,6.19,8.24,4.82,4.82,0,0,1-.94,2.85A14.33,14.33,0,0,0,47,33.07,2.78,2.78,0,0,0,48,31,6.59,6.59,0,0,0,41.38,24.36Z"/><path class="cls-2" d="M11.67,33.56a8.6,8.6,0,0,1,6.06-8.2,6.59,6.59,0,0,0-3.49-1H6.63A6.59,6.59,0,0,0,0,31a2.78,2.78,0,0,0,1,2.11,14.45,14.45,0,0,0,9.45,3.49,14.09,14.09,0,0,0,2.16-.18A4.78,4.78,0,0,1,11.67,33.56Z"/></svg>