<svg id="Layer_1" data-name="Layer 1" xmlns="http://www.w3.org/2000/svg" viewBox="0 0 48 48"><defs><style>.cls-1{fill:#efa500;}.cls-2{fill:#4bc0f7;}</style></defs><title>icon-plays-well_1</title><g id="Layer_1-2" data-name="Layer 1"><path class="cls-1" d="M17.94,16.28,15,13.52a4.33,4.33,0,1,0-1.49,1.59l2.92,2.76A9.78,9.78,0,0,1,17.94,16.28Z"/><path class="cls-1" d="M30.29,15.93,34.17,9.4a4.28,4.28,0,1,0-1.88-1.1l-3.87,6.51A10.07,10.07,0,0,1,30.29,15.93Z"/><path class="cls-2" d="M43.67,21.4a4.32,4.32,0,0,0-4.05,2.83l-5.39-.53s0,.08,0,.12A9.9,9.9,0,0,1,34,25.87l5.39.53a4.32,4.32,0,1,0,4.26-5Z"/><path class="cls-1" d="M28.8,38.42l-1.21-5.26a9.47,9.47,0,0,1-2.12.49l1.2,5.27a4.31,4.31,0,1,0,2.13-.5Z"/><path class="cls-2" d="M14.66,25.91,8,28.16a4.32,4.32,0,1,0,.71,2.36,2.85,2.85,0,0,0,0-.29L15.36,28A10.51,10.51,0,0,1,14.66,25.91Z"/><circle class="cls-1" cx="24.34" cy="23.82" r="7.43"/></g></svg>