<svg id="Layer_1" data-name="Layer 1" xmlns="http://www.w3.org/2000/svg" viewBox="0 0 48 48"><defs><style>.cls-1{fill:#4bc0f7;}.cls-2{fill:#f5f5f5;}.cls-3{fill:#ddd;}.cls-4{fill:#efa500;}</style></defs><title>icon-familiar_1</title><rect id="Rectangle_707" data-name="Rectangle 707" class="cls-1" x="8.56" y="15.31" width="12.1" height="13.78"/><path id="Path_1842" data-name="Path 1842" class="cls-2" d="M15.7,17H13.52L10,27.41h2.28l1-3H15.9l1,3h2.38Zm-1.79,5.45.7-2.08h0l.69,2.08Z"/><g id="Group_302" data-name="Group 302"><rect id="Rectangle_708" data-name="Rectangle 708" class="cls-3" x="22.74" y="20.57" width="13.19" height="2.28"/></g><polygon class="cls-1" points="43.14 33.25 28.24 29.09 32.4 44 36.03 40.19 39.85 44 43.14 40.71 39.33 36.89 43.14 33.25"/><path class="cls-4" d="M28.67,36.84h-22V12.34H37.77V30l1.78.5V5.45A1.44,1.44,0,0,0,38.11,4H6.3A1.45,1.45,0,0,0,4.86,5.45v31.8A1.46,1.46,0,0,0,6.3,38.7H29.18Zm-5.6-30H34.93a1.38,1.38,0,0,1,0,2.75H23.07a1.38,1.38,0,0,1,0-2.75Zm-9.1,0a1.38,1.38,0,1,1-1.38,1.37A1.37,1.37,0,0,1,14,6.82Zm-4.49,0A1.38,1.38,0,1,1,8.11,8.19,1.37,1.37,0,0,1,9.48,6.82Z"/><polygon class="cls-3" points="27.2 31.57 8.56 31.57 8.56 33.85 27.83 33.85 27.2 31.57"/><polygon class="cls-3" points="25.84 26.69 28.68 27.49 31.6 28.3 35.92 28.3 35.92 26.02 22.74 26.02 22.74 28.3 26.28 28.3 25.84 26.69"/></svg>