<svg id="Layer_1" data-name="Layer 1" xmlns="http://www.w3.org/2000/svg" viewBox="0 0 48 48"><defs><style>.cls-1{fill:#4bc0f7;}.cls-2{fill:#efa500;}</style></defs><title>icon-add-on_1</title><path class="cls-1" d="M40,5c-.09,1.46-1.52,2.29-2.85,1L33.92,2.72a2.44,2.44,0,0,0-3.45,0L27.29,5.89C26,7.23,24.58,6.43,24.48,5c-.15-2.39-2.69-3.74-4.82-1.78C17.7,5.34,19,7.87,21.43,8c1.45.09,2.25,1.48.91,2.82l-3.21,3.21a2.52,2.52,0,0,0,0,3.53l2.26,2.25a5.33,5.33,0,0,1,1.25-2,5.1,5.1,0,0,1,7.24.1l.06.06L30,18a5.1,5.1,0,0,1,.11,7.23,5.23,5.23,0,0,1-2.05,1.25l2.35,2.35h0l0,0a2.45,2.45,0,0,0,3.46,0l3.24-3.24c1.34-1.34,2.74-.51,2.83.93.16,2.4,2.7,3.74,4.83,1.78,2-2.13.62-4.67-1.77-4.82-1.46-.08-2.28-1.5-.94-2.84l3.17-3.17a2.45,2.45,0,0,0,0-3.46l-3.21-3.22C40.73,9.5,41.56,8.09,43,8c2.39-.16,3.75-2.72,1.79-4.85C42.67,1.19,40.11,2.55,40,5Z"/><path class="cls-2" d="M23.52,21.37c-.08,1.45-1.5,2.27-2.84.94l-3.16-3.17a2.45,2.45,0,0,0-3.46,0l-3.22,3.22C9.5,23.7,8.09,22.87,8,21.42a2.76,2.76,0,0,0-4.85-1.8A2.76,2.76,0,0,0,5,24.47c1.46.08,2.29,1.51,1,2.85L2.72,30.5a2.45,2.45,0,0,0,0,3.46l3.17,3.17c1.34,1.34.54,2.72-.91,2.81-2.39.16-3.74,2.7-1.78,4.83C5.32,46.71,7.85,45.38,8,43c.08-1.45,1.48-2.25,2.81-.92L14,45.27a2.5,2.5,0,0,0,3.53,0L19.81,43a5.33,5.33,0,0,1-2-1.25,5.1,5.1,0,0,1,.11-7.23l.07-.07L18,34.4a5.1,5.1,0,0,1,7.23-.1,5.3,5.3,0,0,1,1.26,2.05L28.83,34h0l0,0a2.45,2.45,0,0,0,0-3.46l-3.24-3.24c-1.33-1.34-.51-2.74.93-2.84,2.4-.15,3.74-2.69,1.78-4.82C26.21,17.64,23.67,19,23.52,21.37Z"/></svg>