<svg id="Layer_1" data-name="Layer 1" xmlns="http://www.w3.org/2000/svg" viewBox="0 0 48 48"><defs><style>.cls-1{fill:#efa500;}.cls-2{fill:#4bc0f7;}</style></defs><title>icon-settings_1</title><path class="cls-1" d="M4.69,18.06a11.33,11.33,0,0,0,1,2.3L4.49,21.83a1.21,1.21,0,0,0,.09,1.6l2,2a1.21,1.21,0,0,0,1.6.09l1.46-1.16a10.92,10.92,0,0,0,2.39,1l.22,1.88a1.21,1.21,0,0,0,1.2,1.07h2.84a1.21,1.21,0,0,0,1.2-1.07l.21-1.81a11,11,0,0,0,2.56-1l1.42,1.12a1.21,1.21,0,0,0,1.6-.09l2-2a1.2,1.2,0,0,0,.09-1.6l-1.1-1.4a10.11,10.11,0,0,0,1.05-2.52l1.7-.19a1.21,1.21,0,0,0,1.07-1.2V13.68a1.2,1.2,0,0,0-1.07-1.19l-1.67-.2a10.58,10.58,0,0,0-1-2.49l1-1.3a1.21,1.21,0,0,0-.09-1.6l-2-2a1.21,1.21,0,0,0-1.6-.09l-1.27,1a10.71,10.71,0,0,0-2.61-1.1l-.2-1.63A1.2,1.2,0,0,0,16.43,2H13.58a1.22,1.22,0,0,0-1.2,1.07L12.19,4.7A10.92,10.92,0,0,0,9.51,5.84L8.2,4.8a1.21,1.21,0,0,0-1.6.09l-2,2a1.21,1.21,0,0,0-.09,1.6l1.1,1.39a10.33,10.33,0,0,0-1,2.52l-1.76.2A1.2,1.2,0,0,0,1.77,13.8v2.85a1.22,1.22,0,0,0,1.07,1.2ZM15,10.36a4.71,4.71,0,1,1-4.71,4.71A4.71,4.71,0,0,1,15,10.36Z"/><path class="cls-2" d="M43.15,18.76l-1.5-1.27a1.18,1.18,0,0,0-1.58.05l-.83.77A8.59,8.59,0,0,0,37,17.6l-.23-1.15a1.2,1.2,0,0,0-1.27-.95l-2,.17a1.19,1.19,0,0,0-1.09,1.15l0,1.16a8.52,8.52,0,0,0-2.11,1.11l-1-.66a1.19,1.19,0,0,0-1.57.23l-1.27,1.51a1.19,1.19,0,0,0,0,1.58l.87.93a9,9,0,0,0-.64,2.11l-1.24.26a1.19,1.19,0,0,0-.95,1.27l.16,1.95a1.21,1.21,0,0,0,1.15,1.1l1.34,0a9.46,9.46,0,0,0,1,1.81l-.75,1.13a1.2,1.2,0,0,0,.23,1.57l1.5,1.27a1.19,1.19,0,0,0,1.58,0l1-.92a8.43,8.43,0,0,0,2,.65L34,36.23a1.18,1.18,0,0,0,1.26,1l2-.16a1.21,1.21,0,0,0,1.1-1.15l0-1.32a9.12,9.12,0,0,0,2-1l1.08.72A1.2,1.2,0,0,0,43,34l1.27-1.5a1.18,1.18,0,0,0-.05-1.58L43.39,30a8.84,8.84,0,0,0,.69-2.13l1.19-.24a1.2,1.2,0,0,0,.95-1.27l-.16-2a1.2,1.2,0,0,0-1.15-1.09l-1.2,0a8.63,8.63,0,0,0-1-2l.66-1A1.2,1.2,0,0,0,43.15,18.76ZM35.76,30.09a3.85,3.85,0,1,1,3.52-4.16A3.86,3.86,0,0,1,35.76,30.09Z"/><path class="cls-1" d="M11.55,35.37a1.19,1.19,0,0,0-1.07,1.17v1.21a1.18,1.18,0,0,0,1,1.19l.88.12A7.12,7.12,0,0,0,13,40.6l-.57.7a1.2,1.2,0,0,0,.07,1.59l.85.86a1.19,1.19,0,0,0,1.58.11l.71-.55a6.71,6.71,0,0,0,1.58.69l.1.92A1.2,1.2,0,0,0,18.51,46h1.21a1.2,1.2,0,0,0,1.2-1l.1-.87a6.91,6.91,0,0,0,1.72-.67l.67.54A1.17,1.17,0,0,0,25,43.89l.87-.84A1.21,1.21,0,0,0,26,41.46l-.52-.66a6.72,6.72,0,0,0,.73-1.67l.79-.08A1.2,1.2,0,0,0,28,37.88V36.67a1.17,1.17,0,0,0-1-1.19l-.77-.1a7.33,7.33,0,0,0-.65-1.67l.48-.59A1.2,1.2,0,0,0,26,31.53l-.85-.86a1.18,1.18,0,0,0-1.58-.11L23,31a6.82,6.82,0,0,0-1.73-.75l-.08-.75A1.2,1.2,0,0,0,20,28.43H18.8a1.18,1.18,0,0,0-1.19,1l-.1.74a7,7,0,0,0-1.8.74l-.59-.49a1.2,1.2,0,0,0-1.59.07l-.86.85A1.17,1.17,0,0,0,12.56,33l.51.66a7.17,7.17,0,0,0-.69,1.67ZM19.34,34a3.14,3.14,0,1,1-3.18,3.1A3.15,3.15,0,0,1,19.34,34Z"/></svg>