<?xml version="1.0" encoding="utf-8"?>
<!-- Generator: Adobe Illustrator 21.0.2, SVG Export Plug-In . SVG Version: 6.00 Build 0)  -->
<svg version="1.1" id="Layer_1" xmlns="http://www.w3.org/2000/svg" xmlns:xlink="http://www.w3.org/1999/xlink" x="0px" y="0px"
	 viewBox="0 0 256 256" style="enable-background:new 0 0 256 256;" xml:space="preserve">
<g>
	<path d="M85.8,80.5H17.2c-7.3,0-12.5,7-10.4,14c0,0.1,0,0.1,0.1,0.2c1.4,4.6,5.6,7.7,10.4,7.7h58.9C78.4,94.7,81.7,87.4,85.8,80.5z
		"/>
	<path d="M95.2,67.3c1.8-2.1,3.6-4.1,5.6-6.1c6.2-6.2,13.1-11.5,20.5-15.7H10.8C4.6,45.5-0.4,50.8,0,57c0,0.1,0,0.1,0,0.2
		c0.4,5.7,5.1,10.1,10.8,10.1H95.2z"/>
	<path d="M71.9,131c0-5.2,0.4-10.4,1.2-15.4H32.5c-8.4,0-13.7,9.1-9.4,16.3c0,0.1,0.1,0.2,0.1,0.2c1.9,3.3,5.5,5.3,9.3,5.3h39.7
		C72,135.3,71.9,133.1,71.9,131z"/>
	<path d="M100.8,200.7c-13.9-13.9-23.2-31.3-27-50.2H59.3c-9.4,0-14.1,11.5-7.3,18.1c14.6,14.1,31.7,25.5,50.5,33.7
		C101.9,201.8,101.4,201.3,100.8,200.7z"/>
</g>
<path d="M170.5,45.5c-47.2,0-85.5,38.3-85.5,85.5s38.3,85.5,85.5,85.5S256,178.2,256,131S217.7,45.5,170.5,45.5z M173.2,185
	c-29.8,0-54-24.2-54-54s24.2-54,54-54c14.9,0,28.4,6,38.2,15.8l-16.3,16.3c-5.6-5.6-13.4-9.1-21.9-9.1c-17.1,0-31,13.9-31,31
	s13.9,31,31,31c8.6,0,16.3-3.5,21.9-9.1l16.3,16.3C201.6,179,188.1,185,173.2,185z"/>
</svg>
