<svg xmlns="http://www.w3.org/2000/svg" xmlns:xlink="http://www.w3.org/1999/xlink" viewBox="0 0 823.48 195.02"><defs><style>.cls-1{fill:url(#linear-gradient);}.cls-2{fill:url(#linear-gradient-2);}.cls-3{fill:url(#linear-gradient-3);}.cls-4{fill:url(#linear-gradient-4);}.cls-5{fill:url(#linear-gradient-5);}.cls-6{fill:#fff;}</style><linearGradient id="linear-gradient" x1="575.73" y1="296.76" x2="345.66" y2="-101.74" gradientUnits="userSpaceOnUse"><stop offset="0" stop-color="#258976"/><stop offset="0.2" stop-color="#40996d"/><stop offset="0.56" stop-color="#6bb45e"/><stop offset="0.83" stop-color="#85c455"/><stop offset="1" stop-color="#8fca52"/></linearGradient><linearGradient id="linear-gradient-2" x1="68.54" y1="75.47" x2="40.05" y2="26.13" xlink:href="#linear-gradient"/><linearGradient id="linear-gradient-3" x1="86.41" y1="37.73" x2="50.72" y2="-24.08" xlink:href="#linear-gradient"/><linearGradient id="linear-gradient-4" x1="68.49" y1="112.8" x2="45.53" y2="73.05" xlink:href="#linear-gradient"/><linearGradient id="linear-gradient-5" x1="104" y1="186.4" x2="65.26" y2="119.3" xlink:href="#linear-gradient"/></defs><title>courier-logo-fullcolor</title><g id="Layer_2" data-name="Layer 2"><g id="Layer_1-2" data-name="Layer 1"><rect class="cls-1" x="97.91" width="725.57" height="195.02" rx="97.51" ry="97.51"/><path class="cls-2" d="M97.91,39.88H19.59a12.4,12.4,0,0,0-11.87,16l.07.25A12.39,12.39,0,0,0,19.66,64.9h67.2A111.1,111.1,0,0,1,97.91,39.88Z"/><path class="cls-3" d="M108.67,24.88q3-3.57,6.37-6.92A113.13,113.13,0,0,1,138.38,0H12.32A12.31,12.31,0,0,0,0,13.1l0,.25A12.34,12.34,0,0,0,12.34,24.88Z"/><path class="cls-4" d="M82.08,97.51A114,114,0,0,1,83.45,79.9H37A12.41,12.41,0,0,0,26.28,98.52l.16.27a12.33,12.33,0,0,0,10.64,6H82.32C82.17,102.39,82.08,100,82.08,97.51Z"/><path class="cls-5" d="M115,177.06a111.72,111.72,0,0,1-30.75-57.25H67.66a12,12,0,0,0-8.36,20.62,195.31,195.31,0,0,0,57.64,38.49Q116,178,115,177.06Z"/><path class="cls-6" d="M222.63,122.52a35.37,35.37,0,1,1,0-50l18.58-18.58a61.65,61.65,0,1,0,0,87.19Z"/><path class="cls-6" d="M457.09,64.51v93.43H430.52v-16.5C424.09,153.25,413.32,159,399.25,159c-20.67,0-33.69-13.72-33.69-35.78V64.51h26.75v51.06c0,11.81,6.77,18.93,17.54,18.93,12.85-.17,20.67-10.25,20.67-23.79V64.51Z"/><path class="cls-6" d="M540.62,63.46V88.65c-19.1-1.74-30.91,8.51-30.91,24.31v45H483V64.51h26.75V81.35C516.13,69.89,526.73,63.64,540.62,63.46Z"/><path class="cls-6" d="M582,64.51v93.43H555.21V64.51Zm-.35-26.57c0,7.64-5.38,13.37-13,13.37s-13-5.73-13-13.37c0-7.82,5.38-13.37,13-13.37S581.61,30.12,581.61,37.93Z"/><path class="cls-6" d="M769,63.46V88.65c-19.1-1.74-30.91,8.51-30.91,24.31v45H711.34V64.51h26.75V81.35C744.51,69.89,755.1,63.64,769,63.46Z"/><path class="cls-6" d="M299.89,63.64a47.76,47.76,0,1,0,47.76,47.76A47.76,47.76,0,0,0,299.89,63.64Zm0,70.13a22.37,22.37,0,1,1,22.37-22.37A22.37,22.37,0,0,1,299.89,133.77Z"/><path class="cls-6" d="M646.88,63.55a47.76,47.76,0,1,0,34,81.35l-15.9-15.54a25.53,25.53,0,0,1-42.27-10H694a62.44,62.44,0,0,0,.67-8.08A47.72,47.72,0,0,0,646.88,63.55ZM623.52,101a25.52,25.52,0,0,1,46.7,0Z"/></g></g></svg>