<svg xmlns="http://www.w3.org/2000/svg" xmlns:xlink="http://www.w3.org/1999/xlink" viewBox="0 0 292.1 195.02"><defs><style>.cls-1{fill:url(#linear-gradient);}.cls-2{fill:url(#linear-gradient-2);}.cls-3{fill:url(#linear-gradient-3);}.cls-4{fill:url(#linear-gradient-4);}.cls-5{fill:url(#linear-gradient-5);}.cls-6{fill:#fff;}</style><linearGradient id="linear-gradient" x1="243.35" y1="181.97" x2="145.83" y2="13.05" gradientUnits="userSpaceOnUse"><stop offset="0" stop-color="#258976"/><stop offset="0.09" stop-color="#339271"/><stop offset="0.37" stop-color="#5baa64"/><stop offset="0.62" stop-color="#77bc5a"/><stop offset="0.84" stop-color="#89c654"/><stop offset="1" stop-color="#8fca52"/></linearGradient><linearGradient id="linear-gradient-2" x1="68.54" y1="75.47" x2="40.05" y2="26.13" gradientUnits="userSpaceOnUse"><stop offset="0" stop-color="#258976"/><stop offset="0.2" stop-color="#40996d"/><stop offset="0.56" stop-color="#6bb45e"/><stop offset="0.83" stop-color="#85c455"/><stop offset="1" stop-color="#8fca52"/></linearGradient><linearGradient id="linear-gradient-3" x1="86.41" y1="37.73" x2="50.72" y2="-24.08" xlink:href="#linear-gradient-2"/><linearGradient id="linear-gradient-4" x1="68.49" y1="112.8" x2="45.53" y2="73.05" xlink:href="#linear-gradient-2"/><linearGradient id="linear-gradient-5" x1="104" y1="186.4" x2="65.26" y2="119.3" xlink:href="#linear-gradient-2"/></defs><title>courier-logo-mark</title><g id="Layer_2" data-name="Layer 2"><g id="Layer_1-2" data-name="Layer 1"><circle class="cls-1" cx="194.59" cy="97.51" r="97.51"/><path class="cls-2" d="M97.91,39.88H19.59a12.4,12.4,0,0,0-11.87,16l.07.25A12.39,12.39,0,0,0,19.66,64.9h67.2A111.1,111.1,0,0,1,97.91,39.88Z"/><path class="cls-3" d="M108.67,24.88q3-3.57,6.37-6.92A113.13,113.13,0,0,1,138.38,0H12.32A12.31,12.31,0,0,0,0,13.1l0,.25A12.34,12.34,0,0,0,12.34,24.88Z"/><path class="cls-4" d="M82.08,97.51A114,114,0,0,1,83.45,79.9H37A12.41,12.41,0,0,0,26.28,98.52l.16.27a12.33,12.33,0,0,0,10.64,6H82.32C82.17,102.39,82.08,100,82.08,97.51Z"/><path class="cls-5" d="M115,177.06a111.72,111.72,0,0,1-30.75-57.25H67.66a12,12,0,0,0-8.36,20.62,195.31,195.31,0,0,0,57.64,38.49Q116,178,115,177.06Z"/><path class="cls-6" d="M222.63,122.52a35.37,35.37,0,1,1,0-50l18.58-18.58a61.65,61.65,0,1,0,0,87.19Z"/></g></g></svg>